<svg xmlns="http://www.w3.org/2000/svg" viewBox="0 0 48 60" x="0px" y="0px"><title>Bar</title><path d="M33.94,18V14a1,1,0,0,0,1-1V7a1,1,0,0,0-1-1h-10a1,1,0,0,0-1,1v6a1,1,0,0,0,1,1V18a13.87,13.87,0,0,0-4.44,2.88V19a1,1,0,0,0-.22-.62L15.5,13.65v-1.8A1,1,0,0,0,16,11V1a1,1,0,0,0-1-1H10A1,1,0,0,0,9,1V11a1,1,0,0,0,.5.85v1.8L5.72,18.38A1,1,0,0,0,5.5,19V47a1,1,0,0,0,1,1h12a1.06,1.06,0,0,0,.44-.11,4.33,4.33,0,0,0,.95.11H38a4,4,0,0,0,4-3.92l.45-13c0-.18,0-.35,0-.52A13.51,13.51,0,0,0,33.94,18ZM11,2h3V4H11Zm6.5,44H7.5V36h6a1,1,0,0,0,1-1V26a1,1,0,0,0-1-1h-6V19.35L11,15h3l3.48,4.35Zm23-15L40,44a2,2,0,0,1-2,2H19.89a1.74,1.74,0,0,1-.39,0V32.41a2.18,2.18,0,0,0,.77,1c1.07.76,2.48.25,4.11-.34A13.42,13.42,0,0,1,28.94,32a13.42,13.42,0,0,1,4.56,1.06,8.92,8.92,0,0,0,2.83.72,2.16,2.16,0,0,0,1.28-.38,3.4,3.4,0,0,0,1.07-2.9A9.73,9.73,0,0,0,19.5,28.15V23.9a11.63,11.63,0,0,1,5.76-4.3,1,1,0,0,0,.68-1V14h6v4.65a1,1,0,0,0,.68,1A11.53,11.53,0,0,1,40.5,30.54C40.5,30.67,40.5,30.8,40.49,31Z"/></svg>