<?xml version="1.0" encoding="utf-8"?><!DOCTYPE svg PUBLIC "-//W3C//DTD SVG 1.1//EN" "http://www.w3.org/Graphics/SVG/1.1/DTD/svg11.dtd"><svg version="1.1" xmlns="http://www.w3.org/2000/svg" xmlns:xlink="http://www.w3.org/1999/xlink" x="0px" y="0px" viewBox="15.052 -0.109 70.86 125" enable-background="new 15.052 -0.109 70.86 100" xml:space="preserve"><g><g><path d="M48.451,30.814c-16.191,0-33.398-5.419-33.398-15.462c0-10.043,17.208-15.461,33.398-15.461
			c16.189,0,33.396,5.418,33.396,15.461C81.847,25.396,64.64,30.814,48.451,30.814z M48.451,5.334
			c-17.318,0-27.952,5.835-27.952,10.018c0,4.183,10.633,10.017,27.952,10.017c17.318,0,27.951-5.834,27.951-10.017
			C76.401,11.169,65.768,5.334,48.451,5.334z"/></g><g><path d="M48.451,97.327c-13.288,0-22.932-4.759-22.932-11.318h4.235c0,2.97,6.497,7.084,18.697,7.084
			c3.792,0,7.5-0.422,10.719-1.22l1.017,4.109C56.638,96.862,52.578,97.327,48.451,97.327z"/></g><g><rect x="-12.86" y="48.983" transform="matrix(-0.1386 -0.9903 0.9903 -0.1386 -24.7521 80.672)" width="71.136" height="4.235"/></g><g><rect x="73.183" y="15.596" transform="matrix(-0.9896 -0.144 0.144 -0.9896 143.751 94.6372)" width="4.235" height="53.04"/></g><g><path d="M71.203,62.062l0.889-6.087c-5.14,3.111-13.548,5.106-23.23,5.106c-9.854,0-18.388-2.065-23.5-5.272l0.844,6.021
			c4.027,3.123,12.151,5.589,22.657,5.589C59.104,67.42,67.078,65.074,71.203,62.062z"/><path d="M22.376,34.472c2.472,4.855,13.596,8.646,26.486,8.646c12.629,0,23.56-3.638,26.325-8.353l1.695-11.646
			c-6.624,4.225-17.528,6.443-28.02,6.443c-10.525,0-21.462-2.231-28.081-6.481L22.376,34.472z"/><path d="M22.868,37.987l0.896,6.397c4.006,3.946,13.881,6.815,25.099,6.815c11.024,0,20.754-2.771,24.89-6.609l0.942-6.463
			c-4.692,4.099-14.38,6.857-25.833,6.857C37.282,44.983,27.5,42.166,22.868,37.987z"/><path d="M56.718,74.454c3.01-4.418,8.048-7.35,13.764-7.444l0.362-2.472c-4.936,2.901-12.872,4.749-21.982,4.749
			c-9.318,0-17.398-1.936-22.306-4.947l0.743,5.302c3.943,3.139,12.233,5.356,21.564,5.356
			C51.563,74.997,54.196,74.81,56.718,74.454z"/><path d="M48.862,59.217c10.078,0,19.06-2.343,23.587-5.694l0.916-6.279c-5.056,3.522-14.045,5.821-24.503,5.821
			c-10.606,0-19.704-2.364-24.72-5.969l0.873,6.229C29.452,56.781,38.588,59.217,48.862,59.217z"/><path d="M48.862,93.556c2.581,0,5.123-0.196,7.508-0.562c-1.639-2.612-2.589-5.695-2.589-9c0-2.694,0.631-5.242,1.753-7.506
			c-2.164,0.244-4.395,0.376-6.672,0.376c-8.883,0-16.581-1.861-21.219-4.757l1.985,14.17h0.024
			C29.652,89.329,36.328,93.556,48.862,93.556z"/></g><g><path d="M69.376,99.891c-9.12,0-16.538-7.418-16.538-16.537c0-9.118,7.418-16.537,16.538-16.537
			c9.117,0,16.536,7.419,16.536,16.537C85.912,92.473,78.493,99.891,69.376,99.891z M69.376,71.05
			c-6.784,0-12.304,5.52-12.304,12.304c0,6.783,5.52,12.302,12.304,12.302c6.781,0,12.301-5.519,12.301-12.302
			C81.675,76.567,76.157,71.05,69.376,71.05z"/></g></g></svg>