<svg width="25" height="27" viewBox="0 0 25 27" fill="none" xmlns="http://www.w3.org/2000/svg">
<path d="M20.5625 17.125H15.125V15.3125H20.5625V17.125Z" fill="#474747"/>
<path d="M24.1875 24.375H18.75V22.5625H24.1875V24.375Z" fill="#474747"/>
<path d="M22.375 20.75H16.9375V18.9375H22.375V20.75Z" fill="#474747"/>
<path d="M12.4093 17.125C12.4029 16.3603 12.199 15.6103 11.8173 14.9477C11.4355 14.285 10.889 13.7323 10.2307 13.3432L16.9378 1.71875L15.37 0.8125L8.50338 12.7079C7.66066 12.5197 6.78418 12.5457 5.95412 12.7837C5.12406 13.0216 4.3669 13.4639 3.75191 14.07C0.35891 17.3425 0.621723 24.9931 0.63441 25.3175C0.643778 25.5515 0.743378 25.7728 0.912328 25.935C1.08128 26.0972 1.30646 26.1877 1.54066 26.1875H15.1263C15.3165 26.1875 15.5018 26.1277 15.6561 26.0164C15.8105 25.9052 15.9258 25.7483 15.986 25.5678C16.0461 25.3874 16.048 25.1926 15.9913 25.011C15.9346 24.8295 15.8222 24.6704 15.67 24.5563C12.4619 22.1493 12.4093 17.1739 12.4093 17.125ZM7.81191 14.4035C8.53725 14.4115 9.23159 14.6988 9.75047 15.2057C10.2693 15.7126 10.5728 16.4 10.5977 17.125C10.5977 17.1594 10.5995 17.3135 10.6131 17.55L5.26625 15.172C5.61846 14.8816 6.02489 14.6641 6.46191 14.5322C6.89894 14.4002 7.35783 14.3565 7.81191 14.4035ZM11.0019 24.375C10.2775 23.6374 9.8158 22.6821 9.68785 21.6562H7.87535C7.94025 22.6208 8.24153 23.5545 8.7526 24.375H6.738C6.36531 23.1989 6.13856 21.9814 6.06285 20.75H4.25035C4.30879 21.9777 4.51106 23.1944 4.853 24.375H2.43785C2.46594 22.7111 2.70066 19.0354 4.07182 16.6238L10.8986 19.6598C11.2266 21.3629 11.9259 22.9728 12.9467 24.375H11.0019Z" fill="#474747"/>
</svg>
