<svg xmlns="http://www.w3.org/2000/svg" xmlns:xlink="http://www.w3.org/1999/xlink" version="1.1" x="0px" y="0px" viewBox="0 0 95 118.75" enable-background="new 0 0 95 95" xml:space="preserve"><g><path d="M52.812,56.22h9.797v29.2c0,1.818,1.473,3.291,3.29,3.291s3.29-1.473,3.29-3.291v-29.2V35.812V6.289   C54.368,6.289,52.812,56.22,52.812,56.22z"/><path d="M46.119,30.066h-3.466V6.289h-3.41v23.777h-3.467V6.289h-3.409v23.777H28.9V6.289h-3.089v23.75   c0,5.465,3.753,10.043,8.818,11.326l-2.478,43.989c0,1.854,3.85,3.357,5.358,3.357s5.357-1.504,5.357-3.357l-2.478-43.989   c5.065-1.285,8.818-5.861,8.818-11.326V6.289h-3.09V30.066z"/></g></svg>