<svg xmlns:dc="http://purl.org/dc/elements/1.1/" xmlns:cc="http://creativecommons.org/ns#" xmlns:rdf="http://www.w3.org/1999/02/22-rdf-syntax-ns#" xmlns:svg="http://www.w3.org/2000/svg" xmlns="http://www.w3.org/2000/svg" xmlns:sodipodi="http://sodipodi.sourceforge.net/DTD/sodipodi-0.dtd" xmlns:inkscape="http://www.inkscape.org/namespaces/inkscape" viewBox="0 0 16.933333 21.1666675" version="1.1" x="0px" y="0px"><g transform="translate(0,-280.06665)"><path style="color:#000000;font-style:normal;font-variant:normal;font-weight:normal;font-stretch:normal;font-size:medium;line-height:normal;font-family:sans-serif;font-variant-ligatures:normal;font-variant-position:normal;font-variant-caps:normal;font-variant-numeric:normal;font-variant-alternates:normal;font-feature-settings:normal;text-indent:0;text-align:start;text-decoration:none;text-decoration-line:none;text-decoration-style:solid;text-decoration-color:#000000;letter-spacing:normal;word-spacing:normal;text-transform:none;writing-mode:lr-tb;direction:ltr;text-orientation:mixed;dominant-baseline:auto;baseline-shift:baseline;text-anchor:start;white-space:normal;shape-padding:0;clip-rule:nonzero;display:inline;overflow:visible;visibility:visible;opacity:1;isolation:auto;mix-blend-mode:normal;color-interpolation:sRGB;color-interpolation-filters:linearRGB;solid-color:#000000;solid-opacity:1;vector-effect:none;fill:#000000;fill-opacity:1;fill-rule:nonzero;stroke:none;stroke-width:0.5291667;stroke-linecap:round;stroke-linejoin:round;stroke-miterlimit:4;stroke-dasharray:none;stroke-dashoffset:0;stroke-opacity:1;color-rendering:auto;image-rendering:auto;shape-rendering:auto;text-rendering:auto;enable-background:accumulate" d="m 3.7005479,282.17865 a 0.26460982,0.26460982 0 0 0 -0.262001,0.26975 v 0.96791 l -2.1032289,2.73523 h 0.6676575 l 1.4355714,-1.86707 v 1.86707 h 0.529685 v -1.86966 l 1.437637,1.86966 h 0.66766 l -2.105297,-2.7373 v -0.96584 a 0.26460982,0.26460982 0 0 0 -0.267684,-0.26975 z m 9.5255161,0 a 0.26460982,0.26460982 0 0 0 -0.261999,0.26975 v 0.96791 l -2.103231,2.73523 h 0.66611 l 1.437121,-1.86862 v 1.86862 h 0.529683 v -1.86552 l 1.436087,1.86552 h 0.66921 l -2.105297,-2.7373 v -0.96584 a 0.26460982,0.26460982 0 0 0 -0.267684,-0.26975 z m -12.43180037,4.50206 a 0.26460982,0.26460982 0 0 0 -0.2656153,0.26561 v 1.05885 a 0.26460982,0.26460982 0 0 0 0.2656153,0.26355 H 6.6145809 a 0.26460982,0.26460982 0 0 0 0.263549,-0.26355 v -1.05885 a 0.26460982,0.26460982 0 0 0 -0.263549,-0.26561 z m 9.52344937,0 a 0.26460982,0.26460982 0 0 0 -0.263548,0.26561 v 1.05885 a 0.26460982,0.26460982 0 0 0 0.263548,0.26355 h 5.822384 a 0.26460982,0.26460982 0 0 0 0.263552,-0.26355 v -1.05885 a 0.26460982,0.26460982 0 0 0 -0.263552,-0.26561 z m -9.47487187,2.11718 c 0.44469047,3.65263 3.93186177,6.08593 7.62330677,6.08593 3.9213211,0 7.1802471,-2.64841 7.6207231,-6.08593 h -5.856489 c -0.4132741,1.81338 -2.2161021,3.1936 -4.4085161,3.1936 -2.192425,0 -3.9956664,-1.38021 -4.4090356,-3.1936 z m 1.11931187,0 c 0.4064264,1.50203 1.9376839,2.66392 3.8591939,2.66392 0.82015,0 1.568373,-0.21336 2.190049,-0.57258 -0.654569,-0.55353 -1.119577,-1.27857 -1.305864,-2.09134 z"/></g></svg>