<svg width="22" height="22" viewBox="0 0 22 22" fill="none" xmlns="http://www.w3.org/2000/svg">
<path d="M10.9999 7.6154C9.13621 7.6154 7.61531 9.1363 7.61531 11C7.61531 12.8636 9.13621 14.3845 10.9999 14.3845C12.8635 14.3845 14.3844 12.8636 14.3844 11C14.3844 9.1363 12.8635 7.6154 10.9999 7.6154ZM21.1511 11C21.1511 9.59841 21.1637 8.20954 21.085 6.81052C21.0063 5.18552 20.6356 3.74333 19.4473 2.55505C18.2565 1.36423 16.8169 0.996068 15.1919 0.917357C13.7903 0.838646 12.4014 0.851341 11.0024 0.851341C9.60085 0.851341 8.21199 0.838646 6.81296 0.917357C5.18796 0.996068 3.74578 1.36677 2.55749 2.55505C1.36667 3.74587 0.998509 5.18552 0.919798 6.81052C0.841087 8.21208 0.853783 9.60095 0.853783 11C0.853783 12.399 0.841087 13.7904 0.919798 15.1894C0.998509 16.8144 1.36921 18.2566 2.55749 19.4449C3.74831 20.6357 5.18796 21.0039 6.81296 21.0826C8.21453 21.1613 9.60339 21.1486 11.0024 21.1486C12.404 21.1486 13.7928 21.1613 15.1919 21.0826C16.8169 21.0039 18.2591 20.6332 19.4473 19.4449C20.6382 18.2541 21.0063 16.8144 21.085 15.1894C21.1663 13.7904 21.1511 12.4015 21.1511 11ZM10.9999 16.2076C8.11804 16.2076 5.79226 13.8818 5.79226 11C5.79226 8.11814 8.11804 5.79236 10.9999 5.79236C13.8817 5.79236 16.2075 8.11814 16.2075 11C16.2075 13.8818 13.8817 16.2076 10.9999 16.2076ZM16.4208 6.79529C15.7479 6.79529 15.2046 6.25193 15.2046 5.57908C15.2046 4.90622 15.7479 4.36286 16.4208 4.36286C17.0936 4.36286 17.637 4.90622 17.637 5.57908C17.6372 5.73885 17.6059 5.89709 17.5448 6.04474C17.4838 6.19238 17.3942 6.32654 17.2812 6.43951C17.1682 6.55249 17.0341 6.64207 16.8864 6.70312C16.7388 6.76417 16.5805 6.79549 16.4208 6.79529Z" fill="black"/>
</svg>
