<svg width="22" height="22" viewBox="0 0 22 22" fill="none" xmlns="http://www.w3.org/2000/svg">
<path d="M20.9013 16.7005L16.1588 12.3924C15.9347 12.1889 15.6401 12.0803 15.3373 12.0897C15.0345 12.099 14.7472 12.2256 14.536 12.4426L11.7442 15.3111C11.0722 15.1829 9.72117 14.7621 8.33051 13.3762C6.93984 11.9857 6.51867 10.6324 6.39384 9.9657L9.26267 7.17529C9.48015 6.96446 9.607 6.67737 9.61636 6.37477C9.62573 6.07217 9.51687 5.77779 9.31284 5.55395L5.00201 0.817012C4.79789 0.59247 4.5142 0.456268 4.21119 0.437334C3.90817 0.418399 3.6097 0.518224 3.37917 0.715606L0.847508 2.88476C0.645804 3.08701 0.525413 3.35618 0.509174 3.64123C0.491674 3.93262 0.158007 10.8352 5.51534 16.1899C10.189 20.8581 16.0433 21.1996 17.6557 21.1996C17.8913 21.1996 18.036 21.1926 18.0745 21.1903C18.3598 21.1743 18.6291 21.0535 18.8305 20.8511L21.0005 18.3206C21.1989 18.091 21.2995 17.7931 21.281 17.4904C21.2625 17.1877 21.1262 16.9042 20.9013 16.7005Z" fill="white"/>
</svg>
