<svg width="22" height="22" viewBox="0 0 22 22" fill="none" xmlns="http://www.w3.org/2000/svg">
<path d="M11 0C4.92545 0 0 4.92545 0 11C0 17.0746 4.92545 22 11 22C17.0746 22 22 17.0746 22 11C22 4.92545 17.0746 0 11 0ZM11 17.3839C10.4574 17.3839 10.0179 16.9444 10.0179 16.4018C10.0179 15.8592 10.4574 15.4196 11 15.4196C11.5426 15.4196 11.9821 15.8592 11.9821 16.4018C11.9821 16.9444 11.5426 17.3839 11 17.3839ZM12.5444 11.9944C12.3221 12.0803 12.1307 12.2312 11.9954 12.4274C11.8601 12.6236 11.787 12.8561 11.7857 13.0944V13.6518C11.7857 13.7598 11.6973 13.8482 11.5893 13.8482H10.4107C10.3027 13.8482 10.2143 13.7598 10.2143 13.6518V13.1239C10.2143 12.5567 10.3788 11.9969 10.7029 11.5304C11.0196 11.0737 11.4616 10.725 11.9821 10.5261C12.817 10.2045 13.3571 9.50469 13.3571 8.74107C13.3571 7.65826 12.2989 6.77679 11 6.77679C9.70112 6.77679 8.64286 7.65826 8.64286 8.74107V8.92768C8.64286 9.03571 8.55446 9.12411 8.44643 9.12411H7.26786C7.15982 9.12411 7.07143 9.03571 7.07143 8.92768V8.74107C7.07143 7.77612 7.49375 6.875 8.25982 6.20469C8.99643 5.55893 9.96875 5.20536 11 5.20536C12.0312 5.20536 13.0036 5.56138 13.7402 6.20469C14.5062 6.875 14.9286 7.77612 14.9286 8.74107C14.9286 10.1603 13.9931 11.4371 12.5444 11.9944Z" fill="#5D5D5D"/>
</svg>
