<svg width="18" height="16" viewBox="0 0 18 16" fill="none" xmlns="http://www.w3.org/2000/svg">
<path d="M1.6875 15.875H16.3125C17.2445 15.875 18 15.1195 18 14.1875V1.8125C18 0.880508 17.2445 0.125 16.3125 0.125H1.6875C0.755508 0.125 0 0.880508 0 1.8125V14.1875C0 15.1195 0.755508 15.875 1.6875 15.875ZM13.5 3.21875C14.2766 3.21875 14.9062 3.84836 14.9062 4.625C14.9062 5.40164 14.2766 6.03125 13.5 6.03125C12.7234 6.03125 12.0938 5.40164 12.0938 4.625C12.0938 3.84836 12.7234 3.21875 13.5 3.21875ZM13.5 6.59375C14.2766 6.59375 14.9062 7.22336 14.9062 8C14.9062 8.77664 14.2766 9.40625 13.5 9.40625C12.7234 9.40625 12.0938 8.77664 12.0938 8C12.0938 7.22336 12.7234 6.59375 13.5 6.59375ZM13.5 9.96875C14.2766 9.96875 14.9062 10.5984 14.9062 11.375C14.9062 12.1516 14.2766 12.7812 13.5 12.7812C12.7234 12.7812 12.0938 12.1516 12.0938 11.375C12.0938 10.5984 12.7234 9.96875 13.5 9.96875ZM3.375 5.1875V4.0625C3.375 3.82952 3.56389 3.64062 3.79688 3.64062H10.8281C11.0611 3.64062 11.25 3.82952 11.25 4.0625V5.1875C11.25 5.42048 11.0611 5.60938 10.8281 5.60938H3.79688C3.56389 5.60938 3.375 5.42048 3.375 5.1875ZM3.375 8.5625V7.4375C3.375 7.20452 3.56389 7.01562 3.79688 7.01562H10.8281C11.0611 7.01562 11.25 7.20452 11.25 7.4375V8.5625C11.25 8.79548 11.0611 8.98438 10.8281 8.98438H3.79688C3.56389 8.98438 3.375 8.79548 3.375 8.5625ZM3.375 11.9375V10.8125C3.375 10.5795 3.56389 10.3906 3.79688 10.3906H10.8281C11.0611 10.3906 11.25 10.5795 11.25 10.8125V11.9375C11.25 12.1705 11.0611 12.3594 10.8281 12.3594H3.79688C3.56389 12.3594 3.375 12.1705 3.375 11.9375Z" fill="#474747"/>
</svg>
