<svg xmlns="http://www.w3.org/2000/svg" data-name="Layer 1" viewBox="0 0 100 125" x="0px" y="0px"><title>Vehicles</title><path d="M90.6,27.31a2.93,2.93,0,0,0-2.71,1.82C87,22.73,86.16,16.9,86,15.47c-.57-4.75-3.42-7.63-7.55-9.55C72,2.93,65.09,1.71,58.12.83,55.05.44,52,.27,48.86,0h-.44C42.71.87,37,1.53,31.31,2.7A59.87,59.87,0,0,0,21.06,6.12C16.61,8,14.27,11.51,13.67,16.29c-.39,3.1-.95,7.74-1.52,12.53a2.93,2.93,0,0,0-5.68,1v9.91A2.93,2.93,0,0,0,9.4,42.66a2.84,2.84,0,0,0,1.2-.26c-.33,3.05-.55,5.24-.55,5.77,0,7.82,0,21.76,0,30.23a2.59,2.59,0,0,0-.47,1.5v4.56a2.67,2.67,0,0,0,2.66,2.66H17v7.66A5.23,5.23,0,0,0,22.22,100h8.3a5.23,5.23,0,0,0,5.21-5.22V87.12H64.27v7.66A5.23,5.23,0,0,0,69.48,100h8.3A5.23,5.23,0,0,0,83,94.78V87.12h4.77a2.67,2.67,0,0,0,2.66-2.66V79.9a2.68,2.68,0,0,0-.51-1.57c.06-8.85.11-23.73-.18-32.11,0-.93-.11-2.07-.22-3.35a3.06,3.06,0,0,0,1.09.21,2.93,2.93,0,0,0,2.93-2.93V30.24A2.93,2.93,0,0,0,90.6,27.31ZM36,10.67H64a3.57,3.57,0,1,1,0,7.14H36a3.57,3.57,0,0,1,0-7.14ZM22.37,72.54a5.4,5.4,0,0,1-5.28-5.67,5.51,5.51,0,0,1,5.42-5.33A5.63,5.63,0,0,1,28,67.12,5.56,5.56,0,0,1,22.37,72.54ZM24.84,55a5.7,5.7,0,0,1-5.71-5.71V29.26a5.71,5.71,0,0,1,5.71-5.71H75.16a5.71,5.71,0,0,1,5.71,5.71V49.33A5.7,5.7,0,0,1,75.16,55ZM77.14,72.5A5.38,5.38,0,0,1,72,66.94a5.43,5.43,0,1,1,10.85.31A5.34,5.34,0,0,1,77.14,72.5Z"/>   </svg>