<svg xmlns="http://www.w3.org/2000/svg" viewBox="0 0 88 110" x="0px" y="0px"><title>bathroom, sink, faucet, tap, wash</title><g><path d="M28,16V11a10,10,0,0,1,20,0V29H40V11a2,2,0,0,0-4,0v5a1.0029,1.0029,0,0,1-1,1H29A1.0029,1.0029,0,0,1,28,16ZM77,31H11a4,4,0,0,0,0,8H77a4,4,0,0,0,0-8ZM36,65H52A24.0319,24.0319,0,0,0,76,41H12A24.0319,24.0319,0,0,0,36,65Zm0,2c-.33,0-.67-.01-1-.02V70a1.0029,1.0029,0,0,0,1,1H52a1.0029,1.0029,0,0,0,1-1V66.98c-.33.01-.67.02-1,.02Zm3,15a5,5,0,0,0,10,0V73H39ZM65,22a2.0059,2.0059,0,0,0-2-2H61V16a1,1,0,0,0-1-1H57a1,1,0,0,0,0,2h2v3H57a2.0059,2.0059,0,0,0-2,2v7H65Z"/></g> </svg>