<svg width="18" height="22" viewBox="0 0 18 22" fill="none" xmlns="http://www.w3.org/2000/svg">
<path d="M10.375 5.5C10.375 5.86467 10.2301 6.21441 9.97227 6.47227C9.71441 6.73013 9.36467 6.875 9 6.875C8.63533 6.875 8.28559 6.73013 8.02773 6.47227C7.76987 6.21441 7.625 5.86467 7.625 5.5C7.625 5.13533 7.76987 4.78559 8.02773 4.52773C8.28559 4.26987 8.63533 4.125 9 4.125C9.36467 4.125 9.71441 4.26987 9.97227 4.52773C10.2301 4.78559 10.375 5.13533 10.375 5.5ZM6.9375 14.4375C6.9375 13.8905 7.1548 13.3659 7.54159 12.9791C7.92839 12.5923 8.45299 12.375 9 12.375C9.54701 12.375 10.0716 12.5923 10.4584 12.9791C10.8452 13.3659 11.0625 13.8905 11.0625 14.4375C11.0625 14.9845 10.8452 15.5091 10.4584 15.8959C10.0716 16.2827 9.54701 16.5 9 16.5C8.45299 16.5 7.92839 16.2827 7.54159 15.8959C7.1548 15.5091 6.9375 14.9845 6.9375 14.4375Z" fill="#474747"/>
<path d="M3.5 0C2.77065 0 2.07118 0.289731 1.55546 0.805456C1.03973 1.32118 0.75 2.02065 0.75 2.75V19.25C0.75 19.9793 1.03973 20.6788 1.55546 21.1945C2.07118 21.7103 2.77065 22 3.5 22H14.5C15.2293 22 15.9288 21.7103 16.4445 21.1945C16.9603 20.6788 17.25 19.9793 17.25 19.25V2.75C17.25 2.02065 16.9603 1.32118 16.4445 0.805456C15.9288 0.289731 15.2293 0 14.5 0L3.5 0ZM11.75 5.5C11.75 6.22935 11.4603 6.92882 10.9445 7.44454C10.4288 7.96027 9.72935 8.25 9 8.25C8.27065 8.25 7.57118 7.96027 7.05546 7.44454C6.53973 6.92882 6.25 6.22935 6.25 5.5C6.25 4.77065 6.53973 4.07118 7.05546 3.55546C7.57118 3.03973 8.27065 2.75 9 2.75C9.72935 2.75 10.4288 3.03973 10.9445 3.55546C11.4603 4.07118 11.75 4.77065 11.75 5.5ZM9 9.625C10.2764 9.625 11.5004 10.132 12.403 11.0345C13.3055 11.9371 13.8125 13.1611 13.8125 14.4375C13.8125 15.7139 13.3055 16.9379 12.403 17.8405C11.5004 18.743 10.2764 19.25 9 19.25C7.72365 19.25 6.49957 18.743 5.59705 17.8405C4.69453 16.9379 4.1875 15.7139 4.1875 14.4375C4.1875 13.1611 4.69453 11.9371 5.59705 11.0345C6.49957 10.132 7.72365 9.625 9 9.625Z" fill="#474747"/>
</svg>
