<svg width="25" height="22" viewBox="0 0 25 22" fill="none" xmlns="http://www.w3.org/2000/svg">
<path d="M13.146 21.4997H19.9272C21.0406 21.4997 22.1084 21.1002 22.8956 20.3891C23.6829 19.678 24.1252 18.7136 24.1252 17.708V16.833H13.146V21.4997Z" fill="#474747"/>
<path d="M24.1252 5.16667V4.29167C24.1252 3.28605 23.6829 2.32163 22.8956 1.61055C22.1084 0.899478 21.0406 0.5 19.9272 0.5H13.146V5.16667H24.1252Z" fill="#474747"/>
<path d="M11.2083 0.5H5.07292C3.95956 0.5 2.8918 0.899478 2.10454 1.61055C1.31728 2.32163 0.875 3.28605 0.875 4.29167V5.16667H11.2083V0.5Z" fill="#474747"/>
<path d="M0.875 6.91699V15.0837H24.125V6.91699H0.875Z" fill="#474747"/>
<path d="M0.875 16.833V17.708C0.875 18.7136 1.31728 19.678 2.10454 20.3891C2.8918 21.1002 3.95956 21.4997 5.07292 21.4997H11.2083V16.833H0.875Z" fill="#474747"/>
</svg>
