<svg xmlns="http://www.w3.org/2000/svg" xmlns:xlink="http://www.w3.org/1999/xlink" xml:space="preserve" style="shape-rendering:geometricPrecision;text-rendering:geometricPrecision;image-rendering:optimizeQuality;" viewBox="0 0 0.280354 0.20667375000000002" x="0px" y="0px" fill-rule="evenodd" clip-rule="evenodd"><defs><style type="text/css">
   
    .fil0 {fill:black}
    .fil1 {fill:black;fill-rule:nonzero}
   
  </style></defs><g><path class="fil0" d="M0.280354 0.0108583c0,-0.0144764 -0.022189,-0.0144764 -0.022189,0l0 0.0706654 -0.0527362 0c-0.00612598,0 -0.0110945,0.00496457 -0.0110945,0.0110906l0 0.061311c0,0.0144724 0.022189,0.0144724 0.022189,0l0 -0.0502165 0.0416417 0 0 0.0501969c0,0.0144724 0.022189,0.0144724 0.022189,0l0 -0.143047z"/><path class="fil1" d="M0.217067 0.0722638c0.0144764,0 0.0144764,-0.022189 0,-0.022189 -0.0512559,0 -0.10252,0 -0.153772,0 -0.0144764,0 -0.0144764,0.022189 0,0.022189l0.0656299 0 0 0.0401063 -0.0255709 0.0354449c-0.00842126,0.0117126 0.00951969,0.024622 0.0179409,0.0129134l0.0188858 -0.0261772 0.018878 0.0261772c0.00842126,0.0117087 0.0263661,-0.00120079 0.0179449,-0.0129134l-0.0255709 -0.0354449 0 -0.0401063 0.0656339 0z"/><path class="fil0" d="M-0 0.0108583c0,-0.0144764 0.022189,-0.0144764 0.022189,0l0 0.0706654 0.0527402 0c0.00612598,0 0.0110906,0.00496457 0.0110906,0.0110906l0 0.061311c0,0.0144724 -0.022185,0.0144724 -0.022185,0l0 -0.0502165 -0.0416457 0 0 0.0501969c0,0.0144724 -0.022189,0.0144724 -0.022189,0l0 -0.143047z"/></g></svg>