<svg width="25" height="21" viewBox="0 0 25 21" fill="none" xmlns="http://www.w3.org/2000/svg">
<path d="M24.6282 3.14256C23.7584 3.52798 22.824 3.7884 21.8417 3.90611C22.8552 3.29964 23.6135 2.34513 23.975 1.22069C23.0228 1.7863 21.9806 2.18443 20.8938 2.39777C20.1629 1.61742 19.1949 1.1002 18.14 0.926392C17.085 0.752587 16.0022 0.931931 15.0597 1.43658C14.1171 1.94123 13.3675 2.74294 12.9273 3.71726C12.487 4.69157 12.3808 5.78397 12.625 6.82486C10.6955 6.72798 8.80798 6.22647 7.08485 5.35288C5.36172 4.47929 3.84153 3.25315 2.62295 1.75402C2.20628 2.47277 1.9667 3.30611 1.9667 4.19361C1.96623 4.99256 2.16298 5.77928 2.53949 6.48395C2.916 7.18863 3.46062 7.78948 4.12503 8.23319C3.35449 8.20867 2.60094 8.00046 1.92712 7.6259V7.6884C1.92704 8.80896 2.31465 9.89504 3.02418 10.7624C3.73371 11.6297 4.72146 12.2248 5.81982 12.4467C5.10502 12.6402 4.35559 12.6687 3.62816 12.5301C3.93805 13.4942 4.54169 14.3374 5.35458 14.9414C6.16747 15.5455 7.1489 15.8803 8.16149 15.8988C6.44257 17.2482 4.31971 17.9802 2.13441 17.9769C1.7473 17.977 1.36053 17.9544 0.976074 17.9092C3.19428 19.3355 5.77643 20.0924 8.41357 20.0894C17.3407 20.0894 22.2209 12.6957 22.2209 6.28319C22.2209 6.07486 22.2157 5.86444 22.2063 5.65611C23.1555 4.96962 23.9749 4.11954 24.6261 3.14569L24.6282 3.14256Z" fill="black"/>
</svg>
