<svg width="24" height="37" viewBox="0 0 24 37" fill="none" xmlns="http://www.w3.org/2000/svg">
<circle cx="12" cy="12" r="11.5" stroke="black"/>
<path fill-rule="evenodd" clip-rule="evenodd" d="M12.4998 36.25C12.1434 36.25 11.8016 36.1084 11.5496 35.8564C11.2976 35.6044 11.156 35.2626 11.156 34.9062L11.156 19.3375L5.38864 25.1076C5.26371 25.2325 5.11539 25.3316 4.95215 25.3992C4.78891 25.4669 4.61395 25.5017 4.43727 25.5017C4.26058 25.5017 4.08562 25.4669 3.92239 25.3992C3.75915 25.3316 3.61083 25.2325 3.48589 25.1076C3.36096 24.9827 3.26185 24.8343 3.19424 24.6711C3.12662 24.5079 3.09182 24.3329 3.09182 24.1562C3.09182 23.9795 3.12662 23.8046 3.19424 23.6413C3.26185 23.4781 3.36096 23.3298 3.48589 23.2048L11.5484 15.1423C11.6732 15.0172 11.8215 14.9179 11.9848 14.8502C12.148 14.7824 12.323 14.7476 12.4998 14.7476C12.6765 14.7476 12.8515 14.7824 13.0148 14.8502C13.178 14.9179 13.3263 15.0172 13.4511 15.1423L21.5136 23.2048C21.766 23.4572 21.9077 23.7994 21.9077 24.1562C21.9077 24.513 21.766 24.8553 21.5136 25.1076C21.2613 25.3599 20.9191 25.5017 20.5623 25.5017C20.2054 25.5017 19.8632 25.3599 19.6109 25.1076L13.8435 19.3375L13.8435 34.9062C13.8435 35.2626 13.7019 35.6044 13.4499 35.8564C13.1979 36.1084 12.8562 36.25 12.4998 36.25Z" fill="black"/>
</svg>
